<?xml version="1.0" standalone="no"?>
<!DOCTYPE svg PUBLIC "-//W3C//DTD SVG 20010904//EN"
 "http://www.w3.org/TR/2001/REC-SVG-20010904/DTD/svg10.dtd">
<svg version="1.0" xmlns="http://www.w3.org/2000/svg"
 width="201.000000pt" height="206.000000pt" viewBox="0 0 201.000000 206.000000"
 preserveAspectRatio="xMidYMid meet">

<g transform="translate(0.000000,206.000000) scale(0.100000,-0.100000)"
fill="#000000" stroke="none">
<path d="M0 1030 l0 -1030 1005 0 1005 0 0 1030 0 1030 -1005 0 -1005 0 0
-1030z m1291 861 c153 -54 279 -171 363 -338 95 -189 100 -421 13 -623 -46
-106 -98 -181 -201 -287 -168 -175 -361 -283 -665 -373 -98 -28 -127 -31 -105
-11 5 5 70 37 144 72 450 209 688 422 778 697 32 99 36 259 8 367 -58 221
-220 391 -409 426 -46 8 -70 7 -120 -6 -73 -19 -116 -46 -186 -120 -37 -39
-65 -58 -104 -71 -28 -9 -54 -18 -56 -20 -2 -2 37 -46 87 -98 50 -53 107 -123
127 -157 157 -268 90 -552 -203 -860 -111 -117 -208 -197 -351 -291 -153 -100
-159 -91 -22 36 46 43 96 92 110 109 l25 30 -134 -6 c-100 -5 -150 -4 -193 7
-32 7 -60 16 -63 19 -8 7 52 249 92 372 91 279 234 499 384 590 30 18 86 44
123 56 80 26 84 19 -66 137 -59 47 -104 88 -100 93 4 4 46 17 93 29 123 30
138 38 210 103 36 32 84 70 108 84 91 54 218 67 313 34z m-56 -217 c25 -25 16
-85 -14 -100 -26 -13 -69 -3 -83 19 -13 20 -9 60 9 79 20 22 66 23 88 2z"/>
</g>
</svg>
